<mxfile host="app.diagrams.net" modified="2022-11-01T03:08:09.520Z" agent="5.0 (Windows NT 10.0; Win64; x64) AppleWebKit/537.36 (KHTML, like Gecko) Chrome/107.0.0.0 Safari/537.36" etag="5CALqfLSewy9Sa8Gj_vb" version="20.5.1" type="github">
  <diagram name="Page-1" id="74e2e168-ea6b-b213-b513-2b3c1d86103e">
    <mxGraphModel dx="1807" dy="1736" grid="1" gridSize="10" guides="1" tooltips="1" connect="1" arrows="1" fold="1" page="1" pageScale="1" pageWidth="1100" pageHeight="850" background="none" math="0" shadow="0">
      <root>
        <mxCell id="0" />
        <mxCell id="1" parent="0" />
        <mxCell id="77e6c97f196da883-1" value="Pool" style="swimlane;html=1;childLayout=stackLayout;startSize=20;rounded=0;shadow=0;labelBackgroundColor=none;strokeWidth=1;fontFamily=Verdana;fontSize=8;align=center;" parent="1" vertex="1">
          <mxGeometry x="60" y="-35" width="1240" height="920" as="geometry" />
        </mxCell>
        <mxCell id="77e6c97f196da883-2" value="Lane 1" style="swimlane;html=1;startSize=20;" parent="77e6c97f196da883-1" vertex="1">
          <mxGeometry y="20" width="490" height="900" as="geometry" />
        </mxCell>
        <mxCell id="AvC7HI38XUERTkS-wq8S-19" value="" style="edgeStyle=orthogonalEdgeStyle;rounded=0;orthogonalLoop=1;jettySize=auto;html=1;" edge="1" parent="77e6c97f196da883-2" source="AvC7HI38XUERTkS-wq8S-3" target="AvC7HI38XUERTkS-wq8S-4">
          <mxGeometry relative="1" as="geometry" />
        </mxCell>
        <mxCell id="AvC7HI38XUERTkS-wq8S-3" value="início" style="ellipse;whiteSpace=wrap;html=1;" vertex="1" parent="77e6c97f196da883-2">
          <mxGeometry x="35" y="40" width="120" height="80" as="geometry" />
        </mxCell>
        <mxCell id="AvC7HI38XUERTkS-wq8S-20" value="" style="edgeStyle=orthogonalEdgeStyle;rounded=0;orthogonalLoop=1;jettySize=auto;html=1;" edge="1" parent="77e6c97f196da883-2" source="AvC7HI38XUERTkS-wq8S-4" target="AvC7HI38XUERTkS-wq8S-5">
          <mxGeometry relative="1" as="geometry" />
        </mxCell>
        <mxCell id="AvC7HI38XUERTkS-wq8S-4" value="&lt;br&gt;insira o&lt;br&gt;&amp;nbsp;peso da peça" style="shape=manualInput;whiteSpace=wrap;html=1;" vertex="1" parent="77e6c97f196da883-2">
          <mxGeometry x="55" y="140" width="80" height="80" as="geometry" />
        </mxCell>
        <mxCell id="AvC7HI38XUERTkS-wq8S-5" value="A peça pesa mais de 100g?" style="rhombus;whiteSpace=wrap;html=1;" vertex="1" parent="77e6c97f196da883-2">
          <mxGeometry x="5" y="260" width="180" height="100" as="geometry" />
        </mxCell>
        <mxCell id="AvC7HI38XUERTkS-wq8S-28" style="edgeStyle=orthogonalEdgeStyle;rounded=0;orthogonalLoop=1;jettySize=auto;html=1;exitX=0;exitY=0;exitDx=98.75;exitDy=0;exitPerimeter=0;" edge="1" parent="77e6c97f196da883-2" source="AvC7HI38XUERTkS-wq8S-11">
          <mxGeometry relative="1" as="geometry">
            <mxPoint x="150" y="180" as="targetPoint" />
            <Array as="points">
              <mxPoint x="359" y="180" />
            </Array>
          </mxGeometry>
        </mxCell>
        <mxCell id="AvC7HI38XUERTkS-wq8S-11" value="Peso menor que 100g, digite novamente." style="shape=display;whiteSpace=wrap;html=1;" vertex="1" parent="77e6c97f196da883-2">
          <mxGeometry x="270" y="270" width="190" height="80" as="geometry" />
        </mxCell>
        <mxCell id="AvC7HI38XUERTkS-wq8S-30" value="" style="edgeStyle=orthogonalEdgeStyle;rounded=0;orthogonalLoop=1;jettySize=auto;html=1;" edge="1" parent="77e6c97f196da883-2" source="AvC7HI38XUERTkS-wq8S-16" target="AvC7HI38XUERTkS-wq8S-15">
          <mxGeometry relative="1" as="geometry" />
        </mxCell>
        <mxCell id="AvC7HI38XUERTkS-wq8S-16" value="&lt;br&gt;insira o nome da peça" style="shape=manualInput;whiteSpace=wrap;html=1;" vertex="1" parent="77e6c97f196da883-2">
          <mxGeometry x="55" y="395" width="80" height="80" as="geometry" />
        </mxCell>
        <mxCell id="AvC7HI38XUERTkS-wq8S-15" value="Nome da peça com &lt;br&gt;mais de 3&amp;nbsp;&lt;br&gt;caracteres ?" style="rhombus;whiteSpace=wrap;html=1;" vertex="1" parent="77e6c97f196da883-2">
          <mxGeometry x="5" y="520" width="180" height="110" as="geometry" />
        </mxCell>
        <mxCell id="AvC7HI38XUERTkS-wq8S-46" value="" style="edgeStyle=orthogonalEdgeStyle;rounded=0;orthogonalLoop=1;jettySize=auto;html=1;" edge="1" parent="77e6c97f196da883-2" source="AvC7HI38XUERTkS-wq8S-9">
          <mxGeometry relative="1" as="geometry">
            <mxPoint x="710" y="115" as="targetPoint" />
            <Array as="points">
              <mxPoint x="95" y="855" />
              <mxPoint x="520" y="855" />
              <mxPoint x="520" y="55" />
            </Array>
          </mxGeometry>
        </mxCell>
        <mxCell id="AvC7HI38XUERTkS-wq8S-9" value="Cadastrar peça no sistema" style="rounded=0;whiteSpace=wrap;html=1;" vertex="1" parent="77e6c97f196da883-2">
          <mxGeometry x="35" y="700" width="120" height="60" as="geometry" />
        </mxCell>
        <mxCell id="AvC7HI38XUERTkS-wq8S-17" value="Nome da peça menor que 3 caracteres, digite o nome novamente." style="shape=display;whiteSpace=wrap;html=1;" vertex="1" parent="77e6c97f196da883-2">
          <mxGeometry x="280" y="520" width="190" height="95" as="geometry" />
        </mxCell>
        <mxCell id="AvC7HI38XUERTkS-wq8S-38" value="Não" style="endArrow=classic;html=1;rounded=0;" edge="1" parent="77e6c97f196da883-2">
          <mxGeometry relative="1" as="geometry">
            <mxPoint x="180" y="574.5" as="sourcePoint" />
            <mxPoint x="280" y="574.5" as="targetPoint" />
            <Array as="points">
              <mxPoint x="230" y="574.5" />
            </Array>
          </mxGeometry>
        </mxCell>
        <mxCell id="AvC7HI38XUERTkS-wq8S-34" value="Não" style="endArrow=classic;html=1;rounded=0;" edge="1" parent="77e6c97f196da883-2">
          <mxGeometry x="0.0002" relative="1" as="geometry">
            <mxPoint x="190" y="310" as="sourcePoint" />
            <mxPoint x="270" y="309.5" as="targetPoint" />
            <Array as="points">
              <mxPoint x="220" y="309.5" />
              <mxPoint x="230" y="310" />
            </Array>
            <mxPoint as="offset" />
          </mxGeometry>
        </mxCell>
        <mxCell id="AvC7HI38XUERTkS-wq8S-39" value="Sim" style="endArrow=classic;html=1;rounded=0;" edge="1" parent="77e6c97f196da883-2">
          <mxGeometry x="-0.1429" relative="1" as="geometry">
            <mxPoint x="94.5" y="360" as="sourcePoint" />
            <mxPoint x="94.5" y="410" as="targetPoint" />
            <Array as="points">
              <mxPoint x="94.5" y="410" />
            </Array>
            <mxPoint as="offset" />
          </mxGeometry>
        </mxCell>
        <mxCell id="AvC7HI38XUERTkS-wq8S-40" style="edgeStyle=orthogonalEdgeStyle;rounded=0;orthogonalLoop=1;jettySize=auto;html=1;entryX=1;entryY=0.638;entryDx=0;entryDy=0;entryPerimeter=0;" edge="1" parent="77e6c97f196da883-2" target="AvC7HI38XUERTkS-wq8S-16">
          <mxGeometry relative="1" as="geometry">
            <mxPoint x="390" y="515" as="sourcePoint" />
            <mxPoint x="170" y="445" as="targetPoint" />
            <Array as="points">
              <mxPoint x="389" y="445" />
              <mxPoint x="379" y="445" />
              <mxPoint x="379" y="446" />
            </Array>
          </mxGeometry>
        </mxCell>
        <mxCell id="AvC7HI38XUERTkS-wq8S-37" value="Sim" style="endArrow=classic;html=1;rounded=0;" edge="1" parent="77e6c97f196da883-2">
          <mxGeometry relative="1" as="geometry">
            <mxPoint x="94.5" y="630" as="sourcePoint" />
            <mxPoint x="94.5" y="700" as="targetPoint" />
            <Array as="points">
              <mxPoint x="94.5" y="660" />
            </Array>
          </mxGeometry>
        </mxCell>
        <mxCell id="77e6c97f196da883-3" value="Lane 2" style="swimlane;html=1;startSize=20;" parent="77e6c97f196da883-1" vertex="1">
          <mxGeometry x="490" y="20" width="570" height="900" as="geometry" />
        </mxCell>
        <mxCell id="AvC7HI38XUERTkS-wq8S-57" style="edgeStyle=orthogonalEdgeStyle;rounded=0;orthogonalLoop=1;jettySize=auto;html=1;entryX=0.5;entryY=0;entryDx=0;entryDy=0;" edge="1" parent="77e6c97f196da883-3" source="AvC7HI38XUERTkS-wq8S-14" target="AvC7HI38XUERTkS-wq8S-18">
          <mxGeometry relative="1" as="geometry" />
        </mxCell>
        <mxCell id="AvC7HI38XUERTkS-wq8S-14" value="Cadastrar peças na lista até atingir 10 itens" style="rounded=0;whiteSpace=wrap;html=1;" vertex="1" parent="77e6c97f196da883-3">
          <mxGeometry x="162.5" y="315" width="127.5" height="60" as="geometry" />
        </mxCell>
        <mxCell id="AvC7HI38XUERTkS-wq8S-12" value="lista com 10 peças cadastradas ?" style="rhombus;whiteSpace=wrap;html=1;" vertex="1" parent="77e6c97f196da883-3">
          <mxGeometry x="120" y="120.01" width="205" height="110" as="geometry" />
        </mxCell>
        <mxCell id="AvC7HI38XUERTkS-wq8S-49" style="edgeStyle=orthogonalEdgeStyle;rounded=0;orthogonalLoop=1;jettySize=auto;html=1;" edge="1" parent="77e6c97f196da883-3" source="AvC7HI38XUERTkS-wq8S-13" target="AvC7HI38XUERTkS-wq8S-18">
          <mxGeometry relative="1" as="geometry">
            <Array as="points">
              <mxPoint x="480" y="345" />
              <mxPoint x="360" y="345" />
            </Array>
          </mxGeometry>
        </mxCell>
        <mxCell id="AvC7HI38XUERTkS-wq8S-13" value="Lista de peças está lotada" style="shape=display;whiteSpace=wrap;html=1;" vertex="1" parent="77e6c97f196da883-3">
          <mxGeometry x="390" y="136.88" width="180" height="76.25" as="geometry" />
        </mxCell>
        <mxCell id="AvC7HI38XUERTkS-wq8S-18" value="Fim" style="ellipse;whiteSpace=wrap;html=1;" vertex="1" parent="77e6c97f196da883-3">
          <mxGeometry x="300" y="485" width="120" height="80" as="geometry" />
        </mxCell>
        <mxCell id="AvC7HI38XUERTkS-wq8S-36" value="Não" style="endArrow=classic;html=1;rounded=0;" edge="1" parent="77e6c97f196da883-3">
          <mxGeometry relative="1" as="geometry">
            <mxPoint x="222" y="230.01" as="sourcePoint" />
            <mxPoint x="222" y="310.01" as="targetPoint" />
            <Array as="points">
              <mxPoint x="222" y="265.01" />
            </Array>
          </mxGeometry>
        </mxCell>
        <mxCell id="AvC7HI38XUERTkS-wq8S-48" value="Sim" style="endArrow=classic;html=1;rounded=0;" edge="1" parent="77e6c97f196da883-3">
          <mxGeometry x="-0.1429" relative="1" as="geometry">
            <mxPoint x="325" y="174.51" as="sourcePoint" />
            <mxPoint x="385" y="174.51" as="targetPoint" />
            <Array as="points">
              <mxPoint x="385" y="174.51" />
            </Array>
            <mxPoint as="offset" />
          </mxGeometry>
        </mxCell>
      </root>
    </mxGraphModel>
  </diagram>
</mxfile>
